<mxfile host="app.diagrams.net" modified="2023-05-08T12:59:33.878Z" agent="Mozilla/5.0 (Macintosh; Intel Mac OS X 10_15_7) AppleWebKit/537.36 (KHTML, like Gecko) Chrome/110.0.0.0 YaBrowser/23.3.3.709 Yowser/2.5 Safari/537.36" etag="29hclXzT5AJwVRTypbgx" version="21.2.9" type="github">
  <diagram id="C5RBs43oDa-KdzZeNtuy" name="Page-1">
    <mxGraphModel dx="2385" dy="2737" grid="1" gridSize="10" guides="1" tooltips="1" connect="1" arrows="1" fold="1" page="1" pageScale="1" pageWidth="827" pageHeight="1169" math="0" shadow="0">
      <root>
        <mxCell id="WIyWlLk6GJQsqaUBKTNV-0" />
        <mxCell id="WIyWlLk6GJQsqaUBKTNV-1" parent="WIyWlLk6GJQsqaUBKTNV-0" />
        <mxCell id="6A4v-FhwOrp0BDWEStGU-1" value="" style="shape=table;startSize=0;container=1;collapsible=0;childLayout=tableLayout;" vertex="1" parent="WIyWlLk6GJQsqaUBKTNV-1">
          <mxGeometry x="1240" y="-890" width="230" height="180" as="geometry" />
        </mxCell>
        <mxCell id="6A4v-FhwOrp0BDWEStGU-2" value="" style="shape=tableRow;horizontal=0;startSize=0;swimlaneHead=0;swimlaneBody=0;strokeColor=inherit;top=0;left=0;bottom=0;right=0;collapsible=0;dropTarget=0;fillColor=none;points=[[0,0.5],[1,0.5]];portConstraint=eastwest;" vertex="1" parent="6A4v-FhwOrp0BDWEStGU-1">
          <mxGeometry width="230" height="40" as="geometry" />
        </mxCell>
        <mxCell id="6A4v-FhwOrp0BDWEStGU-3" value="&lt;p style=&quot;margin: 0px; font-variant-numeric: normal; font-variant-east-asian: normal; font-stretch: normal; line-height: normal; font-family: &amp;quot;.AppleSystemUIFontMonospaced&amp;quot;; text-align: start;&quot; class=&quot;p1&quot;&gt;AbstractDataStorage&lt;/p&gt;" style="shape=partialRectangle;html=1;whiteSpace=wrap;connectable=0;strokeColor=inherit;overflow=hidden;fillColor=none;top=0;left=0;bottom=0;right=0;pointerEvents=1;" vertex="1" parent="6A4v-FhwOrp0BDWEStGU-2">
          <mxGeometry width="230" height="40" as="geometry">
            <mxRectangle width="230" height="40" as="alternateBounds" />
          </mxGeometry>
        </mxCell>
        <mxCell id="6A4v-FhwOrp0BDWEStGU-4" value="" style="shape=tableRow;horizontal=0;startSize=0;swimlaneHead=0;swimlaneBody=0;strokeColor=inherit;top=0;left=0;bottom=0;right=0;collapsible=0;dropTarget=0;fillColor=none;points=[[0,0.5],[1,0.5]];portConstraint=eastwest;" vertex="1" parent="6A4v-FhwOrp0BDWEStGU-1">
          <mxGeometry y="40" width="230" height="40" as="geometry" />
        </mxCell>
        <mxCell id="6A4v-FhwOrp0BDWEStGU-5" value="&lt;p style=&quot;margin: 0px; font-variant-numeric: normal; font-variant-east-asian: normal; font-stretch: normal; line-height: normal; font-family: &amp;quot;.AppleSystemUIFontMonospaced&amp;quot;; text-align: start;&quot; class=&quot;p1&quot;&gt;&lt;br&gt;&lt;/p&gt;" style="shape=partialRectangle;html=1;whiteSpace=wrap;connectable=0;strokeColor=inherit;overflow=hidden;fillColor=none;top=0;left=0;bottom=0;right=0;pointerEvents=1;" vertex="1" parent="6A4v-FhwOrp0BDWEStGU-4">
          <mxGeometry width="230" height="40" as="geometry">
            <mxRectangle width="230" height="40" as="alternateBounds" />
          </mxGeometry>
        </mxCell>
        <mxCell id="6A4v-FhwOrp0BDWEStGU-96" value="" style="shape=tableRow;horizontal=0;startSize=0;swimlaneHead=0;swimlaneBody=0;strokeColor=inherit;top=0;left=0;bottom=0;right=0;collapsible=0;dropTarget=0;fillColor=none;points=[[0,0.5],[1,0.5]];portConstraint=eastwest;" vertex="1" parent="6A4v-FhwOrp0BDWEStGU-1">
          <mxGeometry y="80" width="230" height="100" as="geometry" />
        </mxCell>
        <mxCell id="6A4v-FhwOrp0BDWEStGU-97" value="&lt;blockquote style=&quot;margin: 0 0 0 40px; border: none; padding: 0px;&quot;&gt;&lt;br&gt;&lt;/blockquote&gt;&lt;blockquote style=&quot;margin: 0 0 0 40px; border: none; padding: 0px;&quot;&gt;&lt;span style=&quot;background-color: initial;&quot;&gt;get_by_query: abstract&amp;nbsp;&lt;/span&gt;&lt;/blockquote&gt;&lt;blockquote style=&quot;margin: 0 0 0 40px; border: none; padding: 0px;&quot;&gt;get_by_id:&amp;nbsp; &amp;nbsp; &amp;nbsp; &amp;nbsp;abstract&lt;/blockquote&gt;" style="shape=partialRectangle;html=1;whiteSpace=wrap;connectable=0;strokeColor=inherit;overflow=hidden;fillColor=none;top=0;left=0;bottom=0;right=0;pointerEvents=1;align=left;" vertex="1" parent="6A4v-FhwOrp0BDWEStGU-96">
          <mxGeometry width="230" height="100" as="geometry">
            <mxRectangle width="230" height="100" as="alternateBounds" />
          </mxGeometry>
        </mxCell>
        <mxCell id="6A4v-FhwOrp0BDWEStGU-8" value="" style="shape=table;startSize=0;container=1;collapsible=0;childLayout=tableLayout;" vertex="1" parent="WIyWlLk6GJQsqaUBKTNV-1">
          <mxGeometry x="1240" y="-620" width="230" height="122" as="geometry" />
        </mxCell>
        <mxCell id="6A4v-FhwOrp0BDWEStGU-9" value="" style="shape=tableRow;horizontal=0;startSize=0;swimlaneHead=0;swimlaneBody=0;strokeColor=inherit;top=0;left=0;bottom=0;right=0;collapsible=0;dropTarget=0;fillColor=none;points=[[0,0.5],[1,0.5]];portConstraint=eastwest;" vertex="1" parent="6A4v-FhwOrp0BDWEStGU-8">
          <mxGeometry width="230" height="30" as="geometry" />
        </mxCell>
        <mxCell id="6A4v-FhwOrp0BDWEStGU-10" value="&lt;p style=&quot;margin: 0px; font-variant-numeric: normal; font-variant-east-asian: normal; font-stretch: normal; line-height: normal; font-family: &amp;quot;.AppleSystemUIFontMonospaced&amp;quot;; text-align: start;&quot; class=&quot;p1&quot;&gt;BaseElasticStorage&lt;/p&gt;" style="shape=partialRectangle;html=1;whiteSpace=wrap;connectable=0;strokeColor=inherit;overflow=hidden;fillColor=none;top=0;left=0;bottom=0;right=0;pointerEvents=1;" vertex="1" parent="6A4v-FhwOrp0BDWEStGU-9">
          <mxGeometry width="230" height="30" as="geometry">
            <mxRectangle width="230" height="30" as="alternateBounds" />
          </mxGeometry>
        </mxCell>
        <mxCell id="6A4v-FhwOrp0BDWEStGU-11" value="" style="shape=tableRow;horizontal=0;startSize=0;swimlaneHead=0;swimlaneBody=0;strokeColor=inherit;top=0;left=0;bottom=0;right=0;collapsible=0;dropTarget=0;fillColor=none;points=[[0,0.5],[1,0.5]];portConstraint=eastwest;" vertex="1" parent="6A4v-FhwOrp0BDWEStGU-8">
          <mxGeometry y="30" width="230" height="20" as="geometry" />
        </mxCell>
        <mxCell id="6A4v-FhwOrp0BDWEStGU-12" value="&lt;p style=&quot;margin: 0px; font-variant-numeric: normal; font-variant-east-asian: normal; font-stretch: normal; line-height: normal; font-family: &amp;quot;.AppleSystemUIFontMonospaced&amp;quot;; text-align: start;&quot; class=&quot;p1&quot;&gt;es: AsyncElastic&lt;/p&gt;" style="shape=partialRectangle;html=1;whiteSpace=wrap;connectable=0;strokeColor=inherit;overflow=hidden;fillColor=none;top=0;left=0;bottom=0;right=0;pointerEvents=1;" vertex="1" parent="6A4v-FhwOrp0BDWEStGU-11">
          <mxGeometry width="230" height="20" as="geometry">
            <mxRectangle width="230" height="20" as="alternateBounds" />
          </mxGeometry>
        </mxCell>
        <mxCell id="6A4v-FhwOrp0BDWEStGU-13" value="" style="shape=tableRow;horizontal=0;startSize=0;swimlaneHead=0;swimlaneBody=0;strokeColor=inherit;top=0;left=0;bottom=0;right=0;collapsible=0;dropTarget=0;fillColor=none;points=[[0,0.5],[1,0.5]];portConstraint=eastwest;" vertex="1" parent="6A4v-FhwOrp0BDWEStGU-8">
          <mxGeometry y="50" width="230" height="72" as="geometry" />
        </mxCell>
        <mxCell id="6A4v-FhwOrp0BDWEStGU-14" value="&lt;blockquote style=&quot;margin: 0 0 0 40px; border: none; padding: 0px;&quot;&gt;get_by_query()&lt;br&gt;get_by_id()&lt;/blockquote&gt;" style="shape=partialRectangle;html=1;whiteSpace=wrap;connectable=0;strokeColor=inherit;overflow=hidden;fillColor=none;top=0;left=0;bottom=0;right=0;pointerEvents=1;align=left;" vertex="1" parent="6A4v-FhwOrp0BDWEStGU-13">
          <mxGeometry width="230" height="72" as="geometry">
            <mxRectangle width="230" height="72" as="alternateBounds" />
          </mxGeometry>
        </mxCell>
        <mxCell id="6A4v-FhwOrp0BDWEStGU-22" value="" style="shape=table;startSize=0;container=1;collapsible=0;childLayout=tableLayout;" vertex="1" parent="WIyWlLk6GJQsqaUBKTNV-1">
          <mxGeometry x="1240" y="-30" width="250" height="152" as="geometry" />
        </mxCell>
        <mxCell id="6A4v-FhwOrp0BDWEStGU-23" value="" style="shape=tableRow;horizontal=0;startSize=0;swimlaneHead=0;swimlaneBody=0;strokeColor=inherit;top=0;left=0;bottom=0;right=0;collapsible=0;dropTarget=0;fillColor=none;points=[[0,0.5],[1,0.5]];portConstraint=eastwest;" vertex="1" parent="6A4v-FhwOrp0BDWEStGU-22">
          <mxGeometry width="250" height="36" as="geometry" />
        </mxCell>
        <mxCell id="6A4v-FhwOrp0BDWEStGU-24" value="&lt;p style=&quot;margin: 0px; font-variant-numeric: normal; font-variant-east-asian: normal; font-stretch: normal; line-height: normal; font-family: &amp;quot;.AppleSystemUIFontMonospaced&amp;quot;; text-align: start;&quot; class=&quot;p1&quot;&gt;PersonSe&lt;span style=&quot;background-color: initial;&quot;&gt;archData&lt;/span&gt;&lt;/p&gt;" style="shape=partialRectangle;html=1;whiteSpace=wrap;connectable=0;strokeColor=inherit;overflow=hidden;fillColor=none;top=0;left=0;bottom=0;right=0;pointerEvents=1;" vertex="1" parent="6A4v-FhwOrp0BDWEStGU-23">
          <mxGeometry width="250" height="36" as="geometry">
            <mxRectangle width="250" height="36" as="alternateBounds" />
          </mxGeometry>
        </mxCell>
        <mxCell id="6A4v-FhwOrp0BDWEStGU-25" value="" style="shape=tableRow;horizontal=0;startSize=0;swimlaneHead=0;swimlaneBody=0;strokeColor=inherit;top=0;left=0;bottom=0;right=0;collapsible=0;dropTarget=0;fillColor=none;points=[[0,0.5],[1,0.5]];portConstraint=eastwest;" vertex="1" parent="6A4v-FhwOrp0BDWEStGU-22">
          <mxGeometry y="36" width="250" height="44" as="geometry" />
        </mxCell>
        <mxCell id="6A4v-FhwOrp0BDWEStGU-26" value="&lt;p style=&quot;margin: 0px; font-variant-numeric: normal; font-variant-east-asian: normal; font-stretch: normal; line-height: normal; font-family: &amp;quot;.AppleSystemUIFontMonospaced&amp;quot;; text-align: start;&quot; class=&quot;p1&quot;&gt;storage:&amp;nbsp;&lt;/p&gt;AbstractDataStorage" style="shape=partialRectangle;html=1;whiteSpace=wrap;connectable=0;strokeColor=inherit;overflow=hidden;fillColor=none;top=0;left=0;bottom=0;right=0;pointerEvents=1;" vertex="1" parent="6A4v-FhwOrp0BDWEStGU-25">
          <mxGeometry width="250" height="44" as="geometry">
            <mxRectangle width="250" height="44" as="alternateBounds" />
          </mxGeometry>
        </mxCell>
        <mxCell id="6A4v-FhwOrp0BDWEStGU-27" value="" style="shape=tableRow;horizontal=0;startSize=0;swimlaneHead=0;swimlaneBody=0;strokeColor=inherit;top=0;left=0;bottom=0;right=0;collapsible=0;dropTarget=0;fillColor=none;points=[[0,0.5],[1,0.5]];portConstraint=eastwest;" vertex="1" parent="6A4v-FhwOrp0BDWEStGU-22">
          <mxGeometry y="80" width="250" height="72" as="geometry" />
        </mxCell>
        <mxCell id="6A4v-FhwOrp0BDWEStGU-28" value="get_person_by_id()&lt;br style=&quot;border-color: var(--border-color);&quot;&gt;get_person_films()&lt;br&gt;get_person_by_name()" style="shape=partialRectangle;html=1;whiteSpace=wrap;connectable=0;strokeColor=inherit;overflow=hidden;fillColor=none;top=0;left=0;bottom=0;right=0;pointerEvents=1;" vertex="1" parent="6A4v-FhwOrp0BDWEStGU-27">
          <mxGeometry width="250" height="72" as="geometry">
            <mxRectangle width="250" height="72" as="alternateBounds" />
          </mxGeometry>
        </mxCell>
        <mxCell id="6A4v-FhwOrp0BDWEStGU-29" value="" style="shape=table;startSize=0;container=1;collapsible=0;childLayout=tableLayout;" vertex="1" parent="WIyWlLk6GJQsqaUBKTNV-1">
          <mxGeometry x="1250" y="-240" width="230" height="152" as="geometry" />
        </mxCell>
        <mxCell id="6A4v-FhwOrp0BDWEStGU-30" value="" style="shape=tableRow;horizontal=0;startSize=0;swimlaneHead=0;swimlaneBody=0;strokeColor=inherit;top=0;left=0;bottom=0;right=0;collapsible=0;dropTarget=0;fillColor=none;points=[[0,0.5],[1,0.5]];portConstraint=eastwest;" vertex="1" parent="6A4v-FhwOrp0BDWEStGU-29">
          <mxGeometry width="230" height="40" as="geometry" />
        </mxCell>
        <mxCell id="6A4v-FhwOrp0BDWEStGU-31" value="&lt;p style=&quot;margin: 0px; font-variant-numeric: normal; font-variant-east-asian: normal; font-stretch: normal; line-height: normal; font-family: &amp;quot;.AppleSystemUIFontMonospaced&amp;quot;; text-align: start;&quot; class=&quot;p1&quot;&gt;FilmSearchData&lt;/p&gt;" style="shape=partialRectangle;html=1;whiteSpace=wrap;connectable=0;strokeColor=inherit;overflow=hidden;fillColor=none;top=0;left=0;bottom=0;right=0;pointerEvents=1;" vertex="1" parent="6A4v-FhwOrp0BDWEStGU-30">
          <mxGeometry width="230" height="40" as="geometry">
            <mxRectangle width="230" height="40" as="alternateBounds" />
          </mxGeometry>
        </mxCell>
        <mxCell id="6A4v-FhwOrp0BDWEStGU-32" value="" style="shape=tableRow;horizontal=0;startSize=0;swimlaneHead=0;swimlaneBody=0;strokeColor=inherit;top=0;left=0;bottom=0;right=0;collapsible=0;dropTarget=0;fillColor=none;points=[[0,0.5],[1,0.5]];portConstraint=eastwest;" vertex="1" parent="6A4v-FhwOrp0BDWEStGU-29">
          <mxGeometry y="40" width="230" height="40" as="geometry" />
        </mxCell>
        <mxCell id="6A4v-FhwOrp0BDWEStGU-33" value="&lt;p style=&quot;margin: 0px; font-variant-numeric: normal; font-variant-east-asian: normal; font-stretch: normal; line-height: normal; font-family: &amp;quot;.AppleSystemUIFontMonospaced&amp;quot;; text-align: start;&quot; class=&quot;p1&quot;&gt;storage&lt;span style=&quot;background-color: initial;&quot;&gt;:&lt;/span&gt;&lt;/p&gt;AbstractDataStorage" style="shape=partialRectangle;html=1;whiteSpace=wrap;connectable=0;strokeColor=inherit;overflow=hidden;fillColor=none;top=0;left=0;bottom=0;right=0;pointerEvents=1;" vertex="1" parent="6A4v-FhwOrp0BDWEStGU-32">
          <mxGeometry width="230" height="40" as="geometry">
            <mxRectangle width="230" height="40" as="alternateBounds" />
          </mxGeometry>
        </mxCell>
        <mxCell id="6A4v-FhwOrp0BDWEStGU-34" value="" style="shape=tableRow;horizontal=0;startSize=0;swimlaneHead=0;swimlaneBody=0;strokeColor=inherit;top=0;left=0;bottom=0;right=0;collapsible=0;dropTarget=0;fillColor=none;points=[[0,0.5],[1,0.5]];portConstraint=eastwest;" vertex="1" parent="6A4v-FhwOrp0BDWEStGU-29">
          <mxGeometry y="80" width="230" height="72" as="geometry" />
        </mxCell>
        <mxCell id="6A4v-FhwOrp0BDWEStGU-35" value="get_fim_by_id()&lt;br&gt;get_film_by_title()&lt;br&gt;get_film_by_sort()" style="shape=partialRectangle;html=1;whiteSpace=wrap;connectable=0;strokeColor=inherit;overflow=hidden;fillColor=none;top=0;left=0;bottom=0;right=0;pointerEvents=1;" vertex="1" parent="6A4v-FhwOrp0BDWEStGU-34">
          <mxGeometry width="230" height="72" as="geometry">
            <mxRectangle width="230" height="72" as="alternateBounds" />
          </mxGeometry>
        </mxCell>
        <mxCell id="6A4v-FhwOrp0BDWEStGU-36" value="" style="shape=table;startSize=0;container=1;collapsible=0;childLayout=tableLayout;" vertex="1" parent="WIyWlLk6GJQsqaUBKTNV-1">
          <mxGeometry x="1250" y="-430" width="230" height="152" as="geometry" />
        </mxCell>
        <mxCell id="6A4v-FhwOrp0BDWEStGU-37" value="" style="shape=tableRow;horizontal=0;startSize=0;swimlaneHead=0;swimlaneBody=0;strokeColor=inherit;top=0;left=0;bottom=0;right=0;collapsible=0;dropTarget=0;fillColor=none;points=[[0,0.5],[1,0.5]];portConstraint=eastwest;" vertex="1" parent="6A4v-FhwOrp0BDWEStGU-36">
          <mxGeometry width="230" height="36" as="geometry" />
        </mxCell>
        <mxCell id="6A4v-FhwOrp0BDWEStGU-38" value="&lt;p style=&quot;margin: 0px; font-variant-numeric: normal; font-variant-east-asian: normal; font-stretch: normal; line-height: normal; font-family: &amp;quot;.AppleSystemUIFontMonospaced&amp;quot;; text-align: start;&quot; class=&quot;p1&quot;&gt;GenreSearchData&lt;/p&gt;" style="shape=partialRectangle;html=1;whiteSpace=wrap;connectable=0;strokeColor=inherit;overflow=hidden;fillColor=none;top=0;left=0;bottom=0;right=0;pointerEvents=1;" vertex="1" parent="6A4v-FhwOrp0BDWEStGU-37">
          <mxGeometry width="230" height="36" as="geometry">
            <mxRectangle width="230" height="36" as="alternateBounds" />
          </mxGeometry>
        </mxCell>
        <mxCell id="6A4v-FhwOrp0BDWEStGU-39" value="" style="shape=tableRow;horizontal=0;startSize=0;swimlaneHead=0;swimlaneBody=0;strokeColor=inherit;top=0;left=0;bottom=0;right=0;collapsible=0;dropTarget=0;fillColor=none;points=[[0,0.5],[1,0.5]];portConstraint=eastwest;" vertex="1" parent="6A4v-FhwOrp0BDWEStGU-36">
          <mxGeometry y="36" width="230" height="44" as="geometry" />
        </mxCell>
        <mxCell id="6A4v-FhwOrp0BDWEStGU-40" value="&lt;p style=&quot;margin: 0px; font-variant-numeric: normal; font-variant-east-asian: normal; font-stretch: normal; line-height: normal; font-family: &amp;quot;.AppleSystemUIFontMonospaced&amp;quot;; text-align: start;&quot; class=&quot;p1&quot;&gt;storage:&amp;nbsp;&lt;/p&gt;AbstractDataStorage" style="shape=partialRectangle;html=1;whiteSpace=wrap;connectable=0;strokeColor=inherit;overflow=hidden;fillColor=none;top=0;left=0;bottom=0;right=0;pointerEvents=1;" vertex="1" parent="6A4v-FhwOrp0BDWEStGU-39">
          <mxGeometry width="230" height="44" as="geometry">
            <mxRectangle width="230" height="44" as="alternateBounds" />
          </mxGeometry>
        </mxCell>
        <mxCell id="6A4v-FhwOrp0BDWEStGU-41" value="" style="shape=tableRow;horizontal=0;startSize=0;swimlaneHead=0;swimlaneBody=0;strokeColor=inherit;top=0;left=0;bottom=0;right=0;collapsible=0;dropTarget=0;fillColor=none;points=[[0,0.5],[1,0.5]];portConstraint=eastwest;" vertex="1" parent="6A4v-FhwOrp0BDWEStGU-36">
          <mxGeometry y="80" width="230" height="72" as="geometry" />
        </mxCell>
        <mxCell id="6A4v-FhwOrp0BDWEStGU-42" value="get_genre_by_id()&lt;br&gt;get_all_genres()" style="shape=partialRectangle;html=1;whiteSpace=wrap;connectable=0;strokeColor=inherit;overflow=hidden;fillColor=none;top=0;left=0;bottom=0;right=0;pointerEvents=1;" vertex="1" parent="6A4v-FhwOrp0BDWEStGU-41">
          <mxGeometry width="230" height="72" as="geometry">
            <mxRectangle width="230" height="72" as="alternateBounds" />
          </mxGeometry>
        </mxCell>
        <mxCell id="6A4v-FhwOrp0BDWEStGU-72" value="" style="shape=table;startSize=0;container=1;collapsible=0;childLayout=tableLayout;" vertex="1" parent="WIyWlLk6GJQsqaUBKTNV-1">
          <mxGeometry x="650" y="50" width="310" height="210" as="geometry" />
        </mxCell>
        <mxCell id="6A4v-FhwOrp0BDWEStGU-73" value="" style="shape=tableRow;horizontal=0;startSize=0;swimlaneHead=0;swimlaneBody=0;strokeColor=inherit;top=0;left=0;bottom=0;right=0;collapsible=0;dropTarget=0;fillColor=none;points=[[0,0.5],[1,0.5]];portConstraint=eastwest;" vertex="1" parent="6A4v-FhwOrp0BDWEStGU-72">
          <mxGeometry width="310" height="47" as="geometry" />
        </mxCell>
        <mxCell id="6A4v-FhwOrp0BDWEStGU-74" value="&lt;p style=&quot;margin: 0px; font-variant-numeric: normal; font-variant-east-asian: normal; font-stretch: normal; line-height: normal; font-family: &amp;quot;.AppleSystemUIFontMonospaced&amp;quot;; text-align: start;&quot; class=&quot;p1&quot;&gt;PersonService&lt;/p&gt;" style="shape=partialRectangle;html=1;whiteSpace=wrap;connectable=0;strokeColor=inherit;overflow=hidden;fillColor=none;top=0;left=0;bottom=0;right=0;pointerEvents=1;" vertex="1" parent="6A4v-FhwOrp0BDWEStGU-73">
          <mxGeometry width="310" height="47" as="geometry">
            <mxRectangle width="310" height="47" as="alternateBounds" />
          </mxGeometry>
        </mxCell>
        <mxCell id="6A4v-FhwOrp0BDWEStGU-75" value="" style="shape=tableRow;horizontal=0;startSize=0;swimlaneHead=0;swimlaneBody=0;strokeColor=inherit;top=0;left=0;bottom=0;right=0;collapsible=0;dropTarget=0;fillColor=none;points=[[0,0.5],[1,0.5]];portConstraint=eastwest;" vertex="1" parent="6A4v-FhwOrp0BDWEStGU-72">
          <mxGeometry y="47" width="310" height="46" as="geometry" />
        </mxCell>
        <mxCell id="6A4v-FhwOrp0BDWEStGU-76" value="&lt;p style=&quot;border-color: var(--border-color); font-variant-numeric: normal; font-variant-east-asian: normal; font-stretch: normal; line-height: normal; font-family: &amp;quot;.AppleSystemUIFontMonospaced&amp;quot;; margin: 0px; text-align: start;&quot; class=&quot;p1&quot;&gt;data_storage: PersonSearchData&lt;/p&gt;&lt;p style=&quot;border-color: var(--border-color); font-variant-numeric: normal; font-variant-east-asian: normal; font-stretch: normal; line-height: normal; font-family: &amp;quot;.AppleSystemUIFontMonospaced&amp;quot;; margin: 0px; text-align: start;&quot; class=&quot;p1&quot;&gt;cache_storage: PersonSearchCache&lt;/p&gt;" style="shape=partialRectangle;html=1;whiteSpace=wrap;connectable=0;strokeColor=inherit;overflow=hidden;fillColor=none;top=0;left=0;bottom=0;right=0;pointerEvents=1;" vertex="1" parent="6A4v-FhwOrp0BDWEStGU-75">
          <mxGeometry width="310" height="46" as="geometry">
            <mxRectangle width="310" height="46" as="alternateBounds" />
          </mxGeometry>
        </mxCell>
        <mxCell id="6A4v-FhwOrp0BDWEStGU-77" value="" style="shape=tableRow;horizontal=0;startSize=0;swimlaneHead=0;swimlaneBody=0;strokeColor=inherit;top=0;left=0;bottom=0;right=0;collapsible=0;dropTarget=0;fillColor=none;points=[[0,0.5],[1,0.5]];portConstraint=eastwest;" vertex="1" parent="6A4v-FhwOrp0BDWEStGU-72">
          <mxGeometry y="93" width="310" height="117" as="geometry" />
        </mxCell>
        <mxCell id="6A4v-FhwOrp0BDWEStGU-78" value="&lt;blockquote style=&quot;margin: 0 0 0 40px; border: none; padding: 0px;&quot;&gt;&lt;font style=&quot;border-color: var(--border-color); font-size: 14px;&quot;&gt;get_by_id()&lt;br&gt;&lt;/font&gt;&lt;font style=&quot;border-color: var(--border-color); font-size: 14px;&quot;&gt;get_by_name()&lt;/font&gt;&lt;/blockquote&gt;&lt;blockquote style=&quot;margin: 0 0 0 40px; border: none; padding: 0px;&quot;&gt;&lt;font style=&quot;border-color: var(--border-color); font-size: 14px;&quot;&gt;get_films_for_person()&lt;/font&gt;&lt;/blockquote&gt;" style="shape=partialRectangle;html=1;whiteSpace=wrap;connectable=0;strokeColor=inherit;overflow=hidden;fillColor=none;top=0;left=0;bottom=0;right=0;pointerEvents=1;align=left;" vertex="1" parent="6A4v-FhwOrp0BDWEStGU-77">
          <mxGeometry width="310" height="117" as="geometry">
            <mxRectangle width="310" height="117" as="alternateBounds" />
          </mxGeometry>
        </mxCell>
        <mxCell id="6A4v-FhwOrp0BDWEStGU-79" value="" style="shape=table;startSize=0;container=1;collapsible=0;childLayout=tableLayout;" vertex="1" parent="WIyWlLk6GJQsqaUBKTNV-1">
          <mxGeometry x="650" y="-470" width="306" height="217" as="geometry" />
        </mxCell>
        <mxCell id="6A4v-FhwOrp0BDWEStGU-80" value="" style="shape=tableRow;horizontal=0;startSize=0;swimlaneHead=0;swimlaneBody=0;strokeColor=inherit;top=0;left=0;bottom=0;right=0;collapsible=0;dropTarget=0;fillColor=none;points=[[0,0.5],[1,0.5]];portConstraint=eastwest;" vertex="1" parent="6A4v-FhwOrp0BDWEStGU-79">
          <mxGeometry width="306" height="47" as="geometry" />
        </mxCell>
        <mxCell id="6A4v-FhwOrp0BDWEStGU-81" value="&lt;p style=&quot;margin: 0px; font-variant-numeric: normal; font-variant-east-asian: normal; font-stretch: normal; line-height: normal; font-family: &amp;quot;.AppleSystemUIFontMonospaced&amp;quot;; text-align: start;&quot; class=&quot;p1&quot;&gt;GenreService&lt;/p&gt;" style="shape=partialRectangle;html=1;whiteSpace=wrap;connectable=0;strokeColor=inherit;overflow=hidden;fillColor=none;top=0;left=0;bottom=0;right=0;pointerEvents=1;" vertex="1" parent="6A4v-FhwOrp0BDWEStGU-80">
          <mxGeometry width="306" height="47" as="geometry">
            <mxRectangle width="306" height="47" as="alternateBounds" />
          </mxGeometry>
        </mxCell>
        <mxCell id="6A4v-FhwOrp0BDWEStGU-82" value="" style="shape=tableRow;horizontal=0;startSize=0;swimlaneHead=0;swimlaneBody=0;strokeColor=inherit;top=0;left=0;bottom=0;right=0;collapsible=0;dropTarget=0;fillColor=none;points=[[0,0.5],[1,0.5]];portConstraint=eastwest;" vertex="1" parent="6A4v-FhwOrp0BDWEStGU-79">
          <mxGeometry y="47" width="306" height="53" as="geometry" />
        </mxCell>
        <mxCell id="6A4v-FhwOrp0BDWEStGU-83" value="&lt;p style=&quot;border-color: var(--border-color); font-variant-numeric: normal; font-variant-east-asian: normal; font-stretch: normal; line-height: normal; font-family: &amp;quot;.AppleSystemUIFontMonospaced&amp;quot;; margin: 0px; text-align: start;&quot; class=&quot;p1&quot;&gt;data_storage:GenreSearchData&lt;/p&gt;&lt;p style=&quot;border-color: var(--border-color); font-variant-numeric: normal; font-variant-east-asian: normal; font-stretch: normal; line-height: normal; font-family: &amp;quot;.AppleSystemUIFontMonospaced&amp;quot;; margin: 0px; text-align: start;&quot; class=&quot;p1&quot;&gt;cache_storage: GenreSearchCache&lt;/p&gt;" style="shape=partialRectangle;html=1;whiteSpace=wrap;connectable=0;strokeColor=inherit;overflow=hidden;fillColor=none;top=0;left=0;bottom=0;right=0;pointerEvents=1;" vertex="1" parent="6A4v-FhwOrp0BDWEStGU-82">
          <mxGeometry width="306" height="53" as="geometry">
            <mxRectangle width="306" height="53" as="alternateBounds" />
          </mxGeometry>
        </mxCell>
        <mxCell id="6A4v-FhwOrp0BDWEStGU-84" value="" style="shape=tableRow;horizontal=0;startSize=0;swimlaneHead=0;swimlaneBody=0;strokeColor=inherit;top=0;left=0;bottom=0;right=0;collapsible=0;dropTarget=0;fillColor=none;points=[[0,0.5],[1,0.5]];portConstraint=eastwest;" vertex="1" parent="6A4v-FhwOrp0BDWEStGU-79">
          <mxGeometry y="100" width="306" height="117" as="geometry" />
        </mxCell>
        <mxCell id="6A4v-FhwOrp0BDWEStGU-85" value="&lt;blockquote style=&quot;margin: 0px 0px 0px 40px; border: none; padding: 0px; font-size: 14px;&quot;&gt;&lt;font style=&quot;border-color: var(--border-color);&quot;&gt;get_all()&lt;br style=&quot;border-color: var(--border-color);&quot;&gt;&lt;/font&gt;&lt;font style=&quot;border-color: var(--border-color);&quot;&gt;get_by_id()&lt;/font&gt;&lt;br&gt;&lt;/blockquote&gt;" style="shape=partialRectangle;html=1;whiteSpace=wrap;connectable=0;strokeColor=inherit;overflow=hidden;fillColor=none;top=0;left=0;bottom=0;right=0;pointerEvents=1;align=left;" vertex="1" parent="6A4v-FhwOrp0BDWEStGU-84">
          <mxGeometry width="306" height="117" as="geometry">
            <mxRectangle width="306" height="117" as="alternateBounds" />
          </mxGeometry>
        </mxCell>
        <mxCell id="6A4v-FhwOrp0BDWEStGU-86" value="" style="shape=table;startSize=0;container=1;collapsible=0;childLayout=tableLayout;" vertex="1" parent="WIyWlLk6GJQsqaUBKTNV-1">
          <mxGeometry x="650" y="-195" width="310" height="210" as="geometry" />
        </mxCell>
        <mxCell id="6A4v-FhwOrp0BDWEStGU-87" value="" style="shape=tableRow;horizontal=0;startSize=0;swimlaneHead=0;swimlaneBody=0;strokeColor=inherit;top=0;left=0;bottom=0;right=0;collapsible=0;dropTarget=0;fillColor=none;points=[[0,0.5],[1,0.5]];portConstraint=eastwest;" vertex="1" parent="6A4v-FhwOrp0BDWEStGU-86">
          <mxGeometry width="310" height="47" as="geometry" />
        </mxCell>
        <mxCell id="6A4v-FhwOrp0BDWEStGU-88" value="&lt;p style=&quot;margin: 0px; font-variant-numeric: normal; font-variant-east-asian: normal; font-stretch: normal; line-height: normal; font-family: &amp;quot;.AppleSystemUIFontMonospaced&amp;quot;; text-align: start;&quot; class=&quot;p1&quot;&gt;FilmService&lt;/p&gt;" style="shape=partialRectangle;html=1;whiteSpace=wrap;connectable=0;strokeColor=inherit;overflow=hidden;fillColor=none;top=0;left=0;bottom=0;right=0;pointerEvents=1;" vertex="1" parent="6A4v-FhwOrp0BDWEStGU-87">
          <mxGeometry width="310" height="47" as="geometry">
            <mxRectangle width="310" height="47" as="alternateBounds" />
          </mxGeometry>
        </mxCell>
        <mxCell id="6A4v-FhwOrp0BDWEStGU-89" value="" style="shape=tableRow;horizontal=0;startSize=0;swimlaneHead=0;swimlaneBody=0;strokeColor=inherit;top=0;left=0;bottom=0;right=0;collapsible=0;dropTarget=0;fillColor=none;points=[[0,0.5],[1,0.5]];portConstraint=eastwest;" vertex="1" parent="6A4v-FhwOrp0BDWEStGU-86">
          <mxGeometry y="47" width="310" height="46" as="geometry" />
        </mxCell>
        <mxCell id="6A4v-FhwOrp0BDWEStGU-90" value="&lt;p style=&quot;border-color: var(--border-color); font-variant-numeric: normal; font-variant-east-asian: normal; font-stretch: normal; line-height: normal; font-family: &amp;quot;.AppleSystemUIFontMonospaced&amp;quot;; margin: 0px; text-align: start;&quot; class=&quot;p1&quot;&gt;data_storage:FilmSearchData&lt;/p&gt;&lt;p style=&quot;border-color: var(--border-color); font-variant-numeric: normal; font-variant-east-asian: normal; font-stretch: normal; line-height: normal; font-family: &amp;quot;.AppleSystemUIFontMonospaced&amp;quot;; margin: 0px; text-align: start;&quot; class=&quot;p1&quot;&gt;cache_storage: FilmSearchCache&lt;/p&gt;" style="shape=partialRectangle;html=1;whiteSpace=wrap;connectable=0;strokeColor=inherit;overflow=hidden;fillColor=none;top=0;left=0;bottom=0;right=0;pointerEvents=1;" vertex="1" parent="6A4v-FhwOrp0BDWEStGU-89">
          <mxGeometry width="310" height="46" as="geometry">
            <mxRectangle width="310" height="46" as="alternateBounds" />
          </mxGeometry>
        </mxCell>
        <mxCell id="6A4v-FhwOrp0BDWEStGU-91" value="" style="shape=tableRow;horizontal=0;startSize=0;swimlaneHead=0;swimlaneBody=0;strokeColor=inherit;top=0;left=0;bottom=0;right=0;collapsible=0;dropTarget=0;fillColor=none;points=[[0,0.5],[1,0.5]];portConstraint=eastwest;" vertex="1" parent="6A4v-FhwOrp0BDWEStGU-86">
          <mxGeometry y="93" width="310" height="117" as="geometry" />
        </mxCell>
        <mxCell id="6A4v-FhwOrp0BDWEStGU-92" value="&lt;blockquote style=&quot;margin: 0px 0px 0px 40px; border: none; padding: 0px; font-size: 14px;&quot;&gt;&lt;font style=&quot;border-color: var(--border-color);&quot;&gt;get_by_id()&lt;/font&gt;&lt;/blockquote&gt;&lt;blockquote style=&quot;margin: 0px 0px 0px 40px; border: none; padding: 0px; font-size: 14px;&quot;&gt;&lt;font style=&quot;border-color: var(--border-color);&quot;&gt;get_by_sort()&lt;br&gt;&lt;/font&gt;get_by_title()&lt;/blockquote&gt;" style="shape=partialRectangle;html=1;whiteSpace=wrap;connectable=0;strokeColor=inherit;overflow=hidden;fillColor=none;top=0;left=0;bottom=0;right=0;pointerEvents=1;align=left;" vertex="1" parent="6A4v-FhwOrp0BDWEStGU-91">
          <mxGeometry width="310" height="117" as="geometry">
            <mxRectangle width="310" height="117" as="alternateBounds" />
          </mxGeometry>
        </mxCell>
        <mxCell id="6A4v-FhwOrp0BDWEStGU-101" style="edgeStyle=orthogonalEdgeStyle;rounded=0;orthogonalLoop=1;jettySize=auto;html=1;entryX=0;entryY=0.5;entryDx=0;entryDy=0;" edge="1" parent="WIyWlLk6GJQsqaUBKTNV-1" source="6A4v-FhwOrp0BDWEStGU-9" target="6A4v-FhwOrp0BDWEStGU-2">
          <mxGeometry relative="1" as="geometry" />
        </mxCell>
        <mxCell id="6A4v-FhwOrp0BDWEStGU-102" style="edgeStyle=orthogonalEdgeStyle;rounded=0;orthogonalLoop=1;jettySize=auto;html=1;entryX=0;entryY=0.5;entryDx=0;entryDy=0;" edge="1" parent="WIyWlLk6GJQsqaUBKTNV-1" source="6A4v-FhwOrp0BDWEStGU-89" target="6A4v-FhwOrp0BDWEStGU-30">
          <mxGeometry relative="1" as="geometry" />
        </mxCell>
        <mxCell id="6A4v-FhwOrp0BDWEStGU-103" style="edgeStyle=orthogonalEdgeStyle;rounded=0;orthogonalLoop=1;jettySize=auto;html=1;entryX=0;entryY=0.5;entryDx=0;entryDy=0;" edge="1" parent="WIyWlLk6GJQsqaUBKTNV-1" source="6A4v-FhwOrp0BDWEStGU-75" target="6A4v-FhwOrp0BDWEStGU-23">
          <mxGeometry relative="1" as="geometry" />
        </mxCell>
        <mxCell id="6A4v-FhwOrp0BDWEStGU-104" style="edgeStyle=orthogonalEdgeStyle;rounded=0;orthogonalLoop=1;jettySize=auto;html=1;entryX=0;entryY=0.5;entryDx=0;entryDy=0;" edge="1" parent="WIyWlLk6GJQsqaUBKTNV-1" source="6A4v-FhwOrp0BDWEStGU-82" target="6A4v-FhwOrp0BDWEStGU-37">
          <mxGeometry relative="1" as="geometry" />
        </mxCell>
        <mxCell id="6A4v-FhwOrp0BDWEStGU-105" value="" style="shape=table;startSize=0;container=1;collapsible=0;childLayout=tableLayout;" vertex="1" parent="WIyWlLk6GJQsqaUBKTNV-1">
          <mxGeometry x="210" y="-880" width="230" height="180" as="geometry" />
        </mxCell>
        <mxCell id="6A4v-FhwOrp0BDWEStGU-106" value="" style="shape=tableRow;horizontal=0;startSize=0;swimlaneHead=0;swimlaneBody=0;strokeColor=inherit;top=0;left=0;bottom=0;right=0;collapsible=0;dropTarget=0;fillColor=none;points=[[0,0.5],[1,0.5]];portConstraint=eastwest;" vertex="1" parent="6A4v-FhwOrp0BDWEStGU-105">
          <mxGeometry width="230" height="40" as="geometry" />
        </mxCell>
        <mxCell id="6A4v-FhwOrp0BDWEStGU-107" value="&lt;p style=&quot;margin: 0px; font-variant-numeric: normal; font-variant-east-asian: normal; font-stretch: normal; line-height: normal; font-family: &amp;quot;.AppleSystemUIFontMonospaced&amp;quot;; text-align: start;&quot; class=&quot;p1&quot;&gt;AbstractCacheStorage&lt;/p&gt;" style="shape=partialRectangle;html=1;whiteSpace=wrap;connectable=0;strokeColor=inherit;overflow=hidden;fillColor=none;top=0;left=0;bottom=0;right=0;pointerEvents=1;" vertex="1" parent="6A4v-FhwOrp0BDWEStGU-106">
          <mxGeometry width="230" height="40" as="geometry">
            <mxRectangle width="230" height="40" as="alternateBounds" />
          </mxGeometry>
        </mxCell>
        <mxCell id="6A4v-FhwOrp0BDWEStGU-108" value="" style="shape=tableRow;horizontal=0;startSize=0;swimlaneHead=0;swimlaneBody=0;strokeColor=inherit;top=0;left=0;bottom=0;right=0;collapsible=0;dropTarget=0;fillColor=none;points=[[0,0.5],[1,0.5]];portConstraint=eastwest;" vertex="1" parent="6A4v-FhwOrp0BDWEStGU-105">
          <mxGeometry y="40" width="230" height="40" as="geometry" />
        </mxCell>
        <mxCell id="6A4v-FhwOrp0BDWEStGU-109" value="&lt;p style=&quot;margin: 0px; font-variant-numeric: normal; font-variant-east-asian: normal; font-stretch: normal; line-height: normal; font-family: &amp;quot;.AppleSystemUIFontMonospaced&amp;quot;; text-align: start;&quot; class=&quot;p1&quot;&gt;&lt;br&gt;&lt;/p&gt;" style="shape=partialRectangle;html=1;whiteSpace=wrap;connectable=0;strokeColor=inherit;overflow=hidden;fillColor=none;top=0;left=0;bottom=0;right=0;pointerEvents=1;" vertex="1" parent="6A4v-FhwOrp0BDWEStGU-108">
          <mxGeometry width="230" height="40" as="geometry">
            <mxRectangle width="230" height="40" as="alternateBounds" />
          </mxGeometry>
        </mxCell>
        <mxCell id="6A4v-FhwOrp0BDWEStGU-110" value="" style="shape=tableRow;horizontal=0;startSize=0;swimlaneHead=0;swimlaneBody=0;strokeColor=inherit;top=0;left=0;bottom=0;right=0;collapsible=0;dropTarget=0;fillColor=none;points=[[0,0.5],[1,0.5]];portConstraint=eastwest;" vertex="1" parent="6A4v-FhwOrp0BDWEStGU-105">
          <mxGeometry y="80" width="230" height="100" as="geometry" />
        </mxCell>
        <mxCell id="6A4v-FhwOrp0BDWEStGU-111" value="&lt;blockquote style=&quot;margin: 0 0 0 40px; border: none; padding: 0px;&quot;&gt;get(): abs&lt;/blockquote&gt;&lt;blockquote style=&quot;margin: 0 0 0 40px; border: none; padding: 0px;&quot;&gt;set(): abs&lt;/blockquote&gt;" style="shape=partialRectangle;html=1;whiteSpace=wrap;connectable=0;strokeColor=inherit;overflow=hidden;fillColor=none;top=0;left=0;bottom=0;right=0;pointerEvents=1;align=left;" vertex="1" parent="6A4v-FhwOrp0BDWEStGU-110">
          <mxGeometry width="230" height="100" as="geometry">
            <mxRectangle width="230" height="100" as="alternateBounds" />
          </mxGeometry>
        </mxCell>
        <mxCell id="6A4v-FhwOrp0BDWEStGU-112" value="" style="shape=table;startSize=0;container=1;collapsible=0;childLayout=tableLayout;" vertex="1" parent="WIyWlLk6GJQsqaUBKTNV-1">
          <mxGeometry x="210" y="-610" width="230" height="122" as="geometry" />
        </mxCell>
        <mxCell id="6A4v-FhwOrp0BDWEStGU-113" value="" style="shape=tableRow;horizontal=0;startSize=0;swimlaneHead=0;swimlaneBody=0;strokeColor=inherit;top=0;left=0;bottom=0;right=0;collapsible=0;dropTarget=0;fillColor=none;points=[[0,0.5],[1,0.5]];portConstraint=eastwest;" vertex="1" parent="6A4v-FhwOrp0BDWEStGU-112">
          <mxGeometry width="230" height="30" as="geometry" />
        </mxCell>
        <mxCell id="6A4v-FhwOrp0BDWEStGU-114" value="&lt;p style=&quot;margin: 0px; font-variant-numeric: normal; font-variant-east-asian: normal; font-stretch: normal; line-height: normal; font-family: &amp;quot;.AppleSystemUIFontMonospaced&amp;quot;; text-align: start;&quot; class=&quot;p1&quot;&gt;BaseRedisStorage&lt;/p&gt;" style="shape=partialRectangle;html=1;whiteSpace=wrap;connectable=0;strokeColor=inherit;overflow=hidden;fillColor=none;top=0;left=0;bottom=0;right=0;pointerEvents=1;" vertex="1" parent="6A4v-FhwOrp0BDWEStGU-113">
          <mxGeometry width="230" height="30" as="geometry">
            <mxRectangle width="230" height="30" as="alternateBounds" />
          </mxGeometry>
        </mxCell>
        <mxCell id="6A4v-FhwOrp0BDWEStGU-115" value="" style="shape=tableRow;horizontal=0;startSize=0;swimlaneHead=0;swimlaneBody=0;strokeColor=inherit;top=0;left=0;bottom=0;right=0;collapsible=0;dropTarget=0;fillColor=none;points=[[0,0.5],[1,0.5]];portConstraint=eastwest;" vertex="1" parent="6A4v-FhwOrp0BDWEStGU-112">
          <mxGeometry y="30" width="230" height="20" as="geometry" />
        </mxCell>
        <mxCell id="6A4v-FhwOrp0BDWEStGU-116" value="&lt;p style=&quot;margin: 0px; font-variant-numeric: normal; font-variant-east-asian: normal; font-stretch: normal; line-height: normal; font-family: &amp;quot;.AppleSystemUIFontMonospaced&amp;quot;; text-align: start;&quot; class=&quot;p1&quot;&gt;redis: AsyncRedis&lt;/p&gt;" style="shape=partialRectangle;html=1;whiteSpace=wrap;connectable=0;strokeColor=inherit;overflow=hidden;fillColor=none;top=0;left=0;bottom=0;right=0;pointerEvents=1;" vertex="1" parent="6A4v-FhwOrp0BDWEStGU-115">
          <mxGeometry width="230" height="20" as="geometry">
            <mxRectangle width="230" height="20" as="alternateBounds" />
          </mxGeometry>
        </mxCell>
        <mxCell id="6A4v-FhwOrp0BDWEStGU-117" value="" style="shape=tableRow;horizontal=0;startSize=0;swimlaneHead=0;swimlaneBody=0;strokeColor=inherit;top=0;left=0;bottom=0;right=0;collapsible=0;dropTarget=0;fillColor=none;points=[[0,0.5],[1,0.5]];portConstraint=eastwest;" vertex="1" parent="6A4v-FhwOrp0BDWEStGU-112">
          <mxGeometry y="50" width="230" height="72" as="geometry" />
        </mxCell>
        <mxCell id="6A4v-FhwOrp0BDWEStGU-118" value="&lt;blockquote style=&quot;margin: 0 0 0 40px; border: none; padding: 0px;&quot;&gt;get()&lt;/blockquote&gt;&lt;blockquote style=&quot;margin: 0 0 0 40px; border: none; padding: 0px;&quot;&gt;set()&lt;/blockquote&gt;" style="shape=partialRectangle;html=1;whiteSpace=wrap;connectable=0;strokeColor=inherit;overflow=hidden;fillColor=none;top=0;left=0;bottom=0;right=0;pointerEvents=1;align=left;" vertex="1" parent="6A4v-FhwOrp0BDWEStGU-117">
          <mxGeometry width="230" height="72" as="geometry">
            <mxRectangle width="230" height="72" as="alternateBounds" />
          </mxGeometry>
        </mxCell>
        <mxCell id="6A4v-FhwOrp0BDWEStGU-119" value="" style="shape=table;startSize=0;container=1;collapsible=0;childLayout=tableLayout;" vertex="1" parent="WIyWlLk6GJQsqaUBKTNV-1">
          <mxGeometry x="210" y="-20" width="250" height="150" as="geometry" />
        </mxCell>
        <mxCell id="6A4v-FhwOrp0BDWEStGU-120" value="" style="shape=tableRow;horizontal=0;startSize=0;swimlaneHead=0;swimlaneBody=0;strokeColor=inherit;top=0;left=0;bottom=0;right=0;collapsible=0;dropTarget=0;fillColor=none;points=[[0,0.5],[1,0.5]];portConstraint=eastwest;" vertex="1" parent="6A4v-FhwOrp0BDWEStGU-119">
          <mxGeometry width="250" height="36" as="geometry" />
        </mxCell>
        <mxCell id="6A4v-FhwOrp0BDWEStGU-121" value="&lt;p style=&quot;margin: 0px; font-variant-numeric: normal; font-variant-east-asian: normal; font-stretch: normal; line-height: normal; font-family: &amp;quot;.AppleSystemUIFontMonospaced&amp;quot;; text-align: start;&quot; class=&quot;p1&quot;&gt;PersonSe&lt;span style=&quot;background-color: initial;&quot;&gt;archData&lt;/span&gt;&lt;/p&gt;" style="shape=partialRectangle;html=1;whiteSpace=wrap;connectable=0;strokeColor=inherit;overflow=hidden;fillColor=none;top=0;left=0;bottom=0;right=0;pointerEvents=1;" vertex="1" parent="6A4v-FhwOrp0BDWEStGU-120">
          <mxGeometry width="250" height="36" as="geometry">
            <mxRectangle width="250" height="36" as="alternateBounds" />
          </mxGeometry>
        </mxCell>
        <mxCell id="6A4v-FhwOrp0BDWEStGU-122" value="" style="shape=tableRow;horizontal=0;startSize=0;swimlaneHead=0;swimlaneBody=0;strokeColor=inherit;top=0;left=0;bottom=0;right=0;collapsible=0;dropTarget=0;fillColor=none;points=[[0,0.5],[1,0.5]];portConstraint=eastwest;" vertex="1" parent="6A4v-FhwOrp0BDWEStGU-119">
          <mxGeometry y="36" width="250" height="44" as="geometry" />
        </mxCell>
        <mxCell id="6A4v-FhwOrp0BDWEStGU-123" value="&lt;p style=&quot;margin: 0px; font-variant-numeric: normal; font-variant-east-asian: normal; font-stretch: normal; line-height: normal; font-family: &amp;quot;.AppleSystemUIFontMonospaced&amp;quot;; text-align: start;&quot; class=&quot;p1&quot;&gt;storage:&amp;nbsp;&lt;/p&gt;AbstractDataStorage" style="shape=partialRectangle;html=1;whiteSpace=wrap;connectable=0;strokeColor=inherit;overflow=hidden;fillColor=none;top=0;left=0;bottom=0;right=0;pointerEvents=1;" vertex="1" parent="6A4v-FhwOrp0BDWEStGU-122">
          <mxGeometry width="250" height="44" as="geometry">
            <mxRectangle width="250" height="44" as="alternateBounds" />
          </mxGeometry>
        </mxCell>
        <mxCell id="6A4v-FhwOrp0BDWEStGU-124" value="" style="shape=tableRow;horizontal=0;startSize=0;swimlaneHead=0;swimlaneBody=0;strokeColor=inherit;top=0;left=0;bottom=0;right=0;collapsible=0;dropTarget=0;fillColor=none;points=[[0,0.5],[1,0.5]];portConstraint=eastwest;" vertex="1" parent="6A4v-FhwOrp0BDWEStGU-119">
          <mxGeometry y="80" width="250" height="70" as="geometry" />
        </mxCell>
        <mxCell id="6A4v-FhwOrp0BDWEStGU-125" value="get_person_by_id()&lt;br style=&quot;border-color: var(--border-color);&quot;&gt;get_person_films()&lt;br&gt;put_person_by_id()&lt;br style=&quot;border-color: var(--border-color);&quot;&gt;put_person_films()" style="shape=partialRectangle;html=1;whiteSpace=wrap;connectable=0;strokeColor=inherit;overflow=hidden;fillColor=none;top=0;left=0;bottom=0;right=0;pointerEvents=1;" vertex="1" parent="6A4v-FhwOrp0BDWEStGU-124">
          <mxGeometry width="250" height="70" as="geometry">
            <mxRectangle width="250" height="70" as="alternateBounds" />
          </mxGeometry>
        </mxCell>
        <mxCell id="6A4v-FhwOrp0BDWEStGU-126" value="" style="shape=table;startSize=0;container=1;collapsible=0;childLayout=tableLayout;" vertex="1" parent="WIyWlLk6GJQsqaUBKTNV-1">
          <mxGeometry x="220" y="-230" width="230" height="152" as="geometry" />
        </mxCell>
        <mxCell id="6A4v-FhwOrp0BDWEStGU-127" value="" style="shape=tableRow;horizontal=0;startSize=0;swimlaneHead=0;swimlaneBody=0;strokeColor=inherit;top=0;left=0;bottom=0;right=0;collapsible=0;dropTarget=0;fillColor=none;points=[[0,0.5],[1,0.5]];portConstraint=eastwest;" vertex="1" parent="6A4v-FhwOrp0BDWEStGU-126">
          <mxGeometry width="230" height="40" as="geometry" />
        </mxCell>
        <mxCell id="6A4v-FhwOrp0BDWEStGU-128" value="&lt;p style=&quot;margin: 0px; font-variant-numeric: normal; font-variant-east-asian: normal; font-stretch: normal; line-height: normal; font-family: &amp;quot;.AppleSystemUIFontMonospaced&amp;quot;; text-align: start;&quot; class=&quot;p1&quot;&gt;FilmSearchData&lt;/p&gt;" style="shape=partialRectangle;html=1;whiteSpace=wrap;connectable=0;strokeColor=inherit;overflow=hidden;fillColor=none;top=0;left=0;bottom=0;right=0;pointerEvents=1;" vertex="1" parent="6A4v-FhwOrp0BDWEStGU-127">
          <mxGeometry width="230" height="40" as="geometry">
            <mxRectangle width="230" height="40" as="alternateBounds" />
          </mxGeometry>
        </mxCell>
        <mxCell id="6A4v-FhwOrp0BDWEStGU-129" value="" style="shape=tableRow;horizontal=0;startSize=0;swimlaneHead=0;swimlaneBody=0;strokeColor=inherit;top=0;left=0;bottom=0;right=0;collapsible=0;dropTarget=0;fillColor=none;points=[[0,0.5],[1,0.5]];portConstraint=eastwest;" vertex="1" parent="6A4v-FhwOrp0BDWEStGU-126">
          <mxGeometry y="40" width="230" height="40" as="geometry" />
        </mxCell>
        <mxCell id="6A4v-FhwOrp0BDWEStGU-130" value="&lt;p style=&quot;margin: 0px; font-variant-numeric: normal; font-variant-east-asian: normal; font-stretch: normal; line-height: normal; font-family: &amp;quot;.AppleSystemUIFontMonospaced&amp;quot;; text-align: start;&quot; class=&quot;p1&quot;&gt;storage&lt;span style=&quot;background-color: initial;&quot;&gt;:&lt;/span&gt;&lt;/p&gt;AbstractDataStorage" style="shape=partialRectangle;html=1;whiteSpace=wrap;connectable=0;strokeColor=inherit;overflow=hidden;fillColor=none;top=0;left=0;bottom=0;right=0;pointerEvents=1;" vertex="1" parent="6A4v-FhwOrp0BDWEStGU-129">
          <mxGeometry width="230" height="40" as="geometry">
            <mxRectangle width="230" height="40" as="alternateBounds" />
          </mxGeometry>
        </mxCell>
        <mxCell id="6A4v-FhwOrp0BDWEStGU-131" value="" style="shape=tableRow;horizontal=0;startSize=0;swimlaneHead=0;swimlaneBody=0;strokeColor=inherit;top=0;left=0;bottom=0;right=0;collapsible=0;dropTarget=0;fillColor=none;points=[[0,0.5],[1,0.5]];portConstraint=eastwest;" vertex="1" parent="6A4v-FhwOrp0BDWEStGU-126">
          <mxGeometry y="80" width="230" height="72" as="geometry" />
        </mxCell>
        <mxCell id="6A4v-FhwOrp0BDWEStGU-132" value="get_fim_by_id()&lt;br&gt;get_film_by_sort()&lt;br&gt;put_fim_by_id()&lt;br style=&quot;border-color: var(--border-color);&quot;&gt;put_film_by_sort()" style="shape=partialRectangle;html=1;whiteSpace=wrap;connectable=0;strokeColor=inherit;overflow=hidden;fillColor=none;top=0;left=0;bottom=0;right=0;pointerEvents=1;" vertex="1" parent="6A4v-FhwOrp0BDWEStGU-131">
          <mxGeometry width="230" height="72" as="geometry">
            <mxRectangle width="230" height="72" as="alternateBounds" />
          </mxGeometry>
        </mxCell>
        <mxCell id="6A4v-FhwOrp0BDWEStGU-133" value="" style="shape=table;startSize=0;container=1;collapsible=0;childLayout=tableLayout;" vertex="1" parent="WIyWlLk6GJQsqaUBKTNV-1">
          <mxGeometry x="220" y="-420" width="230" height="152" as="geometry" />
        </mxCell>
        <mxCell id="6A4v-FhwOrp0BDWEStGU-134" value="" style="shape=tableRow;horizontal=0;startSize=0;swimlaneHead=0;swimlaneBody=0;strokeColor=inherit;top=0;left=0;bottom=0;right=0;collapsible=0;dropTarget=0;fillColor=none;points=[[0,0.5],[1,0.5]];portConstraint=eastwest;" vertex="1" parent="6A4v-FhwOrp0BDWEStGU-133">
          <mxGeometry width="230" height="36" as="geometry" />
        </mxCell>
        <mxCell id="6A4v-FhwOrp0BDWEStGU-135" value="&lt;p style=&quot;margin: 0px; font-variant-numeric: normal; font-variant-east-asian: normal; font-stretch: normal; line-height: normal; font-family: &amp;quot;.AppleSystemUIFontMonospaced&amp;quot;; text-align: start;&quot; class=&quot;p1&quot;&gt;GenreSearchData&lt;/p&gt;" style="shape=partialRectangle;html=1;whiteSpace=wrap;connectable=0;strokeColor=inherit;overflow=hidden;fillColor=none;top=0;left=0;bottom=0;right=0;pointerEvents=1;" vertex="1" parent="6A4v-FhwOrp0BDWEStGU-134">
          <mxGeometry width="230" height="36" as="geometry">
            <mxRectangle width="230" height="36" as="alternateBounds" />
          </mxGeometry>
        </mxCell>
        <mxCell id="6A4v-FhwOrp0BDWEStGU-136" value="" style="shape=tableRow;horizontal=0;startSize=0;swimlaneHead=0;swimlaneBody=0;strokeColor=inherit;top=0;left=0;bottom=0;right=0;collapsible=0;dropTarget=0;fillColor=none;points=[[0,0.5],[1,0.5]];portConstraint=eastwest;" vertex="1" parent="6A4v-FhwOrp0BDWEStGU-133">
          <mxGeometry y="36" width="230" height="44" as="geometry" />
        </mxCell>
        <mxCell id="6A4v-FhwOrp0BDWEStGU-137" value="&lt;p style=&quot;margin: 0px; font-variant-numeric: normal; font-variant-east-asian: normal; font-stretch: normal; line-height: normal; font-family: &amp;quot;.AppleSystemUIFontMonospaced&amp;quot;; text-align: start;&quot; class=&quot;p1&quot;&gt;storage:&amp;nbsp;&lt;/p&gt;AbstractDataStorage" style="shape=partialRectangle;html=1;whiteSpace=wrap;connectable=0;strokeColor=inherit;overflow=hidden;fillColor=none;top=0;left=0;bottom=0;right=0;pointerEvents=1;" vertex="1" parent="6A4v-FhwOrp0BDWEStGU-136">
          <mxGeometry width="230" height="44" as="geometry">
            <mxRectangle width="230" height="44" as="alternateBounds" />
          </mxGeometry>
        </mxCell>
        <mxCell id="6A4v-FhwOrp0BDWEStGU-138" value="" style="shape=tableRow;horizontal=0;startSize=0;swimlaneHead=0;swimlaneBody=0;strokeColor=inherit;top=0;left=0;bottom=0;right=0;collapsible=0;dropTarget=0;fillColor=none;points=[[0,0.5],[1,0.5]];portConstraint=eastwest;" vertex="1" parent="6A4v-FhwOrp0BDWEStGU-133">
          <mxGeometry y="80" width="230" height="72" as="geometry" />
        </mxCell>
        <mxCell id="6A4v-FhwOrp0BDWEStGU-139" value="get_genre_by_id()&lt;br&gt;get_all_genres()&lt;br&gt;put_genre_by_id()&lt;br style=&quot;border-color: var(--border-color);&quot;&gt;put_all_genres()" style="shape=partialRectangle;html=1;whiteSpace=wrap;connectable=0;strokeColor=inherit;overflow=hidden;fillColor=none;top=0;left=0;bottom=0;right=0;pointerEvents=1;" vertex="1" parent="6A4v-FhwOrp0BDWEStGU-138">
          <mxGeometry width="230" height="72" as="geometry">
            <mxRectangle width="230" height="72" as="alternateBounds" />
          </mxGeometry>
        </mxCell>
        <mxCell id="6A4v-FhwOrp0BDWEStGU-140" style="edgeStyle=orthogonalEdgeStyle;rounded=0;orthogonalLoop=1;jettySize=auto;html=1;entryX=0;entryY=0.5;entryDx=0;entryDy=0;" edge="1" parent="WIyWlLk6GJQsqaUBKTNV-1" source="6A4v-FhwOrp0BDWEStGU-113" target="6A4v-FhwOrp0BDWEStGU-106">
          <mxGeometry relative="1" as="geometry" />
        </mxCell>
        <mxCell id="6A4v-FhwOrp0BDWEStGU-142" style="edgeStyle=orthogonalEdgeStyle;rounded=0;orthogonalLoop=1;jettySize=auto;html=1;entryX=1;entryY=0.5;entryDx=0;entryDy=0;" edge="1" parent="WIyWlLk6GJQsqaUBKTNV-1" source="6A4v-FhwOrp0BDWEStGU-89" target="6A4v-FhwOrp0BDWEStGU-127">
          <mxGeometry relative="1" as="geometry" />
        </mxCell>
        <mxCell id="6A4v-FhwOrp0BDWEStGU-145" style="edgeStyle=orthogonalEdgeStyle;rounded=0;orthogonalLoop=1;jettySize=auto;html=1;entryX=1;entryY=0.5;entryDx=0;entryDy=0;" edge="1" parent="WIyWlLk6GJQsqaUBKTNV-1" source="6A4v-FhwOrp0BDWEStGU-82" target="6A4v-FhwOrp0BDWEStGU-134">
          <mxGeometry relative="1" as="geometry" />
        </mxCell>
        <mxCell id="6A4v-FhwOrp0BDWEStGU-146" style="edgeStyle=orthogonalEdgeStyle;rounded=0;orthogonalLoop=1;jettySize=auto;html=1;entryX=1;entryY=0.5;entryDx=0;entryDy=0;" edge="1" parent="WIyWlLk6GJQsqaUBKTNV-1" source="6A4v-FhwOrp0BDWEStGU-75" target="6A4v-FhwOrp0BDWEStGU-120">
          <mxGeometry relative="1" as="geometry" />
        </mxCell>
        <mxCell id="6A4v-FhwOrp0BDWEStGU-147" style="edgeStyle=orthogonalEdgeStyle;rounded=0;orthogonalLoop=1;jettySize=auto;html=1;" edge="1" parent="WIyWlLk6GJQsqaUBKTNV-1" source="6A4v-FhwOrp0BDWEStGU-136" target="6A4v-FhwOrp0BDWEStGU-106">
          <mxGeometry relative="1" as="geometry">
            <Array as="points">
              <mxPoint x="130" y="-362" />
              <mxPoint x="130" y="-860" />
            </Array>
          </mxGeometry>
        </mxCell>
        <mxCell id="6A4v-FhwOrp0BDWEStGU-149" style="edgeStyle=orthogonalEdgeStyle;rounded=0;orthogonalLoop=1;jettySize=auto;html=1;entryX=1;entryY=0.5;entryDx=0;entryDy=0;" edge="1" parent="WIyWlLk6GJQsqaUBKTNV-1" source="6A4v-FhwOrp0BDWEStGU-129" target="6A4v-FhwOrp0BDWEStGU-106">
          <mxGeometry relative="1" as="geometry">
            <Array as="points">
              <mxPoint x="510" y="-170" />
              <mxPoint x="510" y="-515" />
              <mxPoint x="500" y="-515" />
              <mxPoint x="500" y="-860" />
            </Array>
          </mxGeometry>
        </mxCell>
        <mxCell id="6A4v-FhwOrp0BDWEStGU-150" style="edgeStyle=orthogonalEdgeStyle;rounded=0;orthogonalLoop=1;jettySize=auto;html=1;" edge="1" parent="WIyWlLk6GJQsqaUBKTNV-1" source="6A4v-FhwOrp0BDWEStGU-122">
          <mxGeometry relative="1" as="geometry">
            <mxPoint x="130" y="-850" as="targetPoint" />
          </mxGeometry>
        </mxCell>
      </root>
    </mxGraphModel>
  </diagram>
</mxfile>
